# AST/ASF file generated using VICON BodyLanguage
# -----------------------------------------------
:version 1.10
:name VICON
:units
  mass 1.0
  length 0.45
  angle deg
:documentation
   .ast/.asf automatically generated from VICON data using
   VICON BodyBuilder and BodyLanguage model FoxedUp or BRILLIANT.MOD
:root
   order TX TY TZ RX RY RZ
   axis XYZ
   position 0 0 0  
   orientation 0 0 0 
:bonedata
  begin
     id 1 
     name lhipjoint
     direction 0.621036 -0.695554 0.361275 
     length 2.46325 
     axis 0 0 0  XYZ
  end
  begin
     id 2 
     name lfemur
     direction 0.34202 -0.939693 0  
     length 6.54784  
     axis 0 0 20  XYZ
    dof rx ry rz
    limits (-160.0 20.0)
           (-70.0 70.0)
           (-60.0 70.0)
  end
  begin
     id 3 
     name ltibia
     direction 0.34202 -0.939693 0   
     length 7.84737   
     axis 0 0 20   XYZ
    dof rx
    limits (-10.0 170.0)
  end
  begin
     id 4 
     name lfoot
     direction 0.0790693 -0.217241 0.97291   
     length 2.59747   
     axis -90 7.62852e-016 20   XYZ
    dof rx rz
    limits (-45.0 90.0)
           (-70.0 20.0)
  end
  begin
     id 5 
     name ltoes
     direction 1.53572e-011 -4.21898e-011 1   
     length 1.29919   
     axis -90 7.62852e-016 20   XYZ
    dof rx
    limits (-90.0 20.0)
  end
  begin
     id 6 
     name rhipjoint
     direction -0.602353 -0.708375 0.367935   
     length 2.41867  
     axis 0 0 0  XYZ 
  end
  begin
     id 7 
     name rfemur
     direction -0.34202 -0.939693 0   
     length 6.92065   
     axis 0 0 -20   XYZ
    dof rx ry rz
    limits (-160.0 20.0)
           (-70.0 70.0)
           (-70.0 60.0)
  end
  begin
     id 8 
     name rtibia
     direction -0.34202 -0.939693 0   
     length 7.88883   
     axis 0 0 -20   XYZ
    dof rx
    limits (-10.0 170.0)
 end
 begin
     id 9 
     name rfoot
     direction -0.0768692 -0.211196 0.974416   
     length 2.43714  
     axis -90 -7.62852e-016 -20   XYZ
    dof rx rz
    limits (-45.0 90.0)
           (-20.0 70.0)
  end
  begin
     id 10 
     name rtoes
     direction -1.53575e-011 -4.21933e-011 1   
     length 1.22113   
     axis -90 -7.62852e-016 -20   XYZ
    dof rx
    limits (-90.0 20.0)
  end
  begin
     id 11 
     name lowerback
     direction 0.0197937 0.98943 -0.143655   
     length 2.16931   
     axis 0 0 0   XYZ
    dof rx ry rz
    limits (-20.0 45.0)
           (-30.0 30.0)
           (-30.0 30.0)
  end
  begin
     id 12 
     name upperback
     direction -0.00183968 0.999975 0.00684288   
     length 2.17221   
     axis 0 0 0   XYZ
    dof rx ry rz
    limits (-20.0 45.0)
           (-30.0 30.0)
           (-30.0 30.0)
  end
  begin
     id 13 
     name thorax
     direction -0.00950244 0.997208 0.0740685   
     length 2.22549   
     axis 0 0 0   XYZ
    dof rx ry rz
    limits (-20.0 45.0)
           (-30.0 30.0)
           (-30.0 30.0)
  end
  begin
     id 14 
     name lowerneck
     direction 0.0218238 0.996215 0.0841425   
     length 1.77269   
     axis 0 0 0   XYZ
    dof rx ry rz
    limits (-20.0 45.0)
           (-30.0 30.0)
           (-30.0 30.0)
  end
  begin
     id 15 
     name upperneck
     direction -0.00430652 0.994214 -0.107332   
     length 1.76534   
     axis 0 0 0   XYZ
    dof rx ry rz
    limits (-20.0 45.0)
           (-30.0 30.0)
           (-30.0 30.0)
  end
  begin
     id 16
     name head
     direction -0.00328946 0.998959 -0.0454998  
     length 1.82634  
     axis 0 0 0   XYZ
    dof rx ry rz
    limits (-20.0 45.0)
           (-30.0 30.0)
           (-30.0 30.0)
  end
  begin
     id 17 
     name lclavicle
     direction 0.970962 0.239191 0.00450212  
     length 3.84872  
     axis 0 0 0   XYZ
    dof ry rz
    limits (-20.0 10.0)
           (0.0 20.0)
  end
  begin
     id 18 
     name lhumerus
     direction 1 -4.48966e-011 5.74696e-028   
     length 5.22771   
     axis 180 -30 -90   XYZ
    dof rx ry rz
    limits (-60.0 90.0)
           (-90.0 90.0)
           (-90.0 90.0)
  end
  begin
     id 19
     name lradius
     direction 1 -4.4896e-011 4.25109e-027   
     length 3.45251   
     axis 180 -30 -90   XYZ
    dof rx
    limits (-10.0 170.0)
  end
  begin
     id 20
     name lwrist
     direction 1 -4.48971e-011 1.15382e-027   
     length 1.72626   
     axis -5.52449e-016 90 90   XYZ
    dof ry
    limits (-180.0 0.0)
 end
  begin
     id 21 
     name lhand
     direction 1 -4.49034e-011 2.30765e-027   
     length 0.552119   
     axis -1.47248e-015 90 90   XYZ
    dof rx rz
    limits (-90.0 90.0)
           (-45.0 45.0)
  end
  begin
     id 22 
     name lfingers
     direction 1 -4.48951e-011 4.61529e-027   
     length 0.445133   
     axis -2.94495e-015 90 90   XYZ
    dof rx
    limits (0.0 90.0)
  end
  begin
     id 23
     name lthumb
     direction 0.707107 -6.34991e-011 0.707107   
     length 0.639124   
     axis -90 45 2.85299e-015   XYZ
    dof rx rz
    limits (-45.0 45.0)
           (-45.0 45.0)
  end
  begin
     id 24 
     name rclavicle
     direction -0.97424 0.222511 -0.0366699   
     length 3.73439  
     axis 0 0 0   XYZ 
    dof ry rz
    limits (-10.0 20.0)
           (-20.0 0.0)
  end
  begin
     id 25 
     name rhumerus
     direction -1 -4.48956e-011 -4.97258e-028  
     length 5.2398   
     axis 180 30 90   XYZ
    dof rx ry rz
    limits (-90.0 60.0)
           (-90.0 90.0)
           (-90.0 90.0)
  end
  begin
     id 26 
     name rradius
     direction -1 -4.4897e-011 -1.72611e-027   
     length 3.48042   
     axis 180 30 90   XYZ
    dof rx
    limits (-10.0 170.0)
  end
  begin
     id 27 
     name rwrist
     direction -1 -4.48976e-011 1.15382e-027   
     length 1.74021   
     axis -5.52449e-016 -90 -90   XYZ
    dof ry
    limits (-180.0 0.0)
  end
  begin
     id 28
     name rhand
     direction -1 -4.48963e-011 2.30765e-027   
     length 0.618713   
     axis -1.47248e-015 -90 -90   XYZ
    dof rx rz
    limits (-90.0 90.0)
           (-45.0 45.0)
  end
  begin
     id 29
     name rfingers
     direction -1 -4.4888e-011 4.61529e-027   
     length 0.498823   
     axis -2.94495e-015 -90 -90   XYZ
    dof rx
    limits (0.0 90.0)
  end
  begin
     id 30
     name rthumb
     direction -0.707107 -6.34968e-011 0.707107   
     length 0.716213   
     axis -90 -45 -2.85299e-015   XYZ
    dof rx rz
    limits (-45.0 45.0)
           (-45.0 45.0)
  end
:hierarchy
  begin
    root lhipjoint rhipjoint lowerback
    lhipjoint lfemur
    lfemur ltibia
    ltibia lfoot
    lfoot ltoes
    rhipjoint rfemur
    rfemur rtibia
    rtibia rfoot
    rfoot rtoes
    lowerback upperback
    upperback thorax
    thorax lowerneck lclavicle rclavicle
    lowerneck upperneck
    upperneck head
    lclavicle lhumerus
    lhumerus lradius
    lradius lwrist
    lwrist lhand lthumb
    lhand lfingers
    rclavicle rhumerus
    rhumerus rradius
    rradius rwrist
    rwrist rhand rthumb
    rhand rfingers
  end

#!OML:ASF G:\JayActor3\Patient Classification 1\Patient 1\Session 5\male.ASF
:FULLY-SPECIFIED
:DEGREES
271
root -35.427 17.069 -17.6445 3.15571 44.6892 -8.38813
lowerback 4.74148 -2.01249 4.55213
upperback 0.205422 -2.41361 0.568183
thorax -2.61081 -1.25057 -1.79482
lowerneck -3.3069 0.938101 2.4741
upperneck 3.92989 1.0611 1.66945
head 1.78574 0.607605 0.131052
rclavicle -8.33902e-014 7.95139e-016
rhumerus -33.6131 -14.3516 -83.6035
rradius 18.3883
rwrist 15.718
rhand -17.595 -5.96327
rfingers 7.12502
rthumb 8.66118 -35.7656
lclavicle -8.33902e-014 7.95139e-016
lhumerus -25.9127 34.875 74.7791
lradius 4.13839
lwrist -12.19
lhand -27.6803 15.7151
lfingers 7.12502
lthumb -1.07717 45.6922
rfemur -13.608 10.4208 29.8699
rtibia 32.5926
rfoot -23.3235 -17.2102
rtoes -17.0383
lfemur -4.01412 8.47353 -15.759
ltibia 34.6921
lfoot -12.4934 2.23979
ltoes -11.9686
272
root -35.3334 17.0775 -17.5299 2.87304 44.9664 -8.70348
lowerback 4.81299 -1.98359 4.85596
upperback 0.194817 -2.35167 0.626539
thorax -2.66788 -1.22393 -1.90621
lowerneck -3.25878 0.833958 2.39247
upperneck 3.90155 0.925877 1.72947
head 1.76666 0.539721 0.159736
rclavicle -1.98785e-016 5.56597e-015
rhumerus -33.5372 -14.3324 -83.5895
rradius 18.344
rwrist 15.8694
rhand -17.6159 -5.94233
rfingers 7.12502
rthumb 8.64103 -35.7455
lclavicle -1.98785e-016 5.56597e-015
lhumerus -25.9357 34.5143 74.9164
lradius 4.17105
lwrist -11.7488
lhand -27.754 15.7658
lfingers 7.12502
lthumb -1.14836 45.7425
rfemur -12.1313 10.3944 30.1969
rtibia 30.7362
rfoot -23.5433 -16.4641
rtoes -14.4015
lfemur -5.66704 8.30837 -15.4626
ltibia 37.2381
lfoot -12.1477 1.94145
ltoes -11.3968
273
root -35.2395 17.0831 -17.4147 2.59549 45.2407 -9.00734
lowerback 4.89141 -1.94979 5.14695
upperback 0.183872 -2.28298 0.68031
thorax -2.72789 -1.19404 -2.01556
lowerneck -3.21212 0.727004 2.30944
upperneck 3.87017 0.786786 1.79291
head 1.74709 0.469917 0.189684
rclavicle -4.35338e-014 6.36111e-015
rhumerus -33.4474 -14.2961 -83.5906
rradius 18.3106
rwrist 16.0012
rhand -17.6412 -5.92055
rfingers 7.12502
rthumb 8.61658 -35.7247
lclavicle -4.35338e-014 6.36111e-015
lhumerus -25.9658 34.1351 75.0487
lradius 4.19328
lwrist -11.283
lhand -27.8248 15.8316
lfingers 7.12502
lthumb -1.21666 45.8079
rfemur -10.6602 10.3284 30.5251
rtibia 28.9271
rfoot -23.6823 -15.738
rtoes -11.8026
lfemur -7.3308 8.14151 -15.1888
ltibia 39.6742
lfoot -11.8281 1.63539
ltoes -10.8379
274
root -35.1452 17.0861 -17.2987 2.3258 45.5088 -9.29747
lowerback 4.9745 -1.91078 5.42368
upperback 0.173186 -2.20737 0.728301
thorax -2.78888 -1.16075 -2.12346
lowerneck -3.16466 0.617727 2.22672
upperneck 3.83439 0.644542 1.85902
head 1.72621 0.398526 0.220381
rclavicle 1.23048e-013 -1.19271e-014
rhumerus -33.3441 -14.2467 -83.6058
rradius 18.2881
rwrist 16.1143
rhand -17.6702 -5.89817
rfingers 7.12502
rthumb 8.58862 -35.7035
lclavicle 1.23048e-013 -1.19271e-014
lhumerus -26.0032 33.7398 75.1747
lradius 4.20824
lwrist -10.7874
lhand -27.8847 15.9173
lfingers 7.12502
lthumb -1.27456 45.8932
rfemur -9.20718 10.2197 30.8509
rtibia 27.182
rfoot -23.7356 -15.0366
rtoes -9.30091
lfemur -8.99685 7.97406 -14.941
ltibia 41.9868
lfoot -11.5428 1.32271
ltoes -10.2958
275
root -35.0506 17.0865 -17.1819 2.06763 45.7694 -9.57108
lowerback 5.06187 -1.86755 5.68219
upperback 0.161693 -2.12641 0.771223
thorax -2.85164 -1.12484 -2.2269
lowerneck -3.11491 0.506959 2.14491
upperneck 3.79455 0.500331 1.92641
head 1.70389 0.326107 0.251317
rclavicle -4.00551e-014 1.43125e-014
rhumerus -33.2289 -14.1825 -83.6333
rradius 18.2767
rwrist 16.2038
rhand -17.7032 -5.87469
rfingers 7.12502
rthumb 8.55677 -35.6813
lclavicle -4.00551e-014 1.43125e-014
lhumerus -26.0499 33.3336 75.293
lradius 4.21073
lwrist -10.2801
lhand -27.9504 16.0072
lfingers 7.12502
lthumb -1.33801 45.9828
rfemur -7.78512 10.0672 31.1703
rtibia 25.5183
rfoot -23.7111 -14.3682
rtoes -6.94341
lfemur -10.6554 7.80872 -14.7224
ltibia 44.1587
lfoot -11.2915 1.00372
ltoes -9.79837
276
root -34.9552 17.0852 -17.0643 1.821 46.0236 -9.82716
lowerback 5.15188 -1.82187 5.92214
upperback 0.150331 -2.04265 0.808734
thorax -2.9145 -1.08751 -2.32594
lowerneck -3.06594 0.396882 2.06568
upperneck 3.75413 0.356856 1.99408
head 1.68182 0.25408 0.282002
rclavicle -2.60408e-014 -1.07344e-014
rhumerus -33.1023 -14.1068 -83.6713
rradius 18.2756
rwrist 16.271
rhand -17.7402 -5.85176
rfingers 7.12502
rthumb 8.52108 -35.6598
lclavicle -2.60408e-014 -1.07344e-014
lhumerus -26.1042 32.9209 75.4022
lradius 4.20015
lwrist -9.75721
lhand -28.015 16.1087
lfingers 7.12502
lthumb -1.40036 46.0838
rfemur -6.40365 9.86524 31.4809
rtibia 23.9519
rfoot -23.606 -13.7365
rtoes -4.76715
lfemur -12.2937 7.64113 -14.5337
ltibia 46.1731
lfoot -11.0662 0.679446
ltoes -9.32413
277
root -34.8588 17.0827 -16.9456 1.58648 46.2661 -10.0642
lowerback 5.24551 -1.77354 6.14221
upperback 0.138955 -1.95593 0.8406
thorax -2.97811 -1.04868 -2.42009
lowerneck -3.01532 0.288243 1.9892
upperneck 3.71333 0.215198 2.06178
head 1.65963 0.182968 0.312343
rclavicle -1.74931e-014 -2.14687e-014
rhumerus -32.9669 -14.0219 -83.7176
rradius 18.2842
rwrist 16.3157
rhand -17.7804 -5.82834
rfingers 7.12502
rthumb 8.48231 -35.638
lclavicle -1.74931e-014 -2.14687e-014
lhumerus -26.1662 32.5061 75.5003
lradius 4.17576
lwrist -9.22025
lhand -28.0745 16.2223
lfingers 7.12502
lthumb -1.45784 46.1971
rfemur -5.07192 9.61269 31.7771
rtibia 22.4984
rfoot -23.4346 -13.1163
rtoes -2.7234
lfemur -13.8905 7.47186 -14.3767
ltibia 48.0105
lfoot -10.8811 0.365111
ltoes -8.87744
278
root -34.7612 17.0797 -16.8257 1.3687 46.4933 -10.2794
lowerback 5.33976 -1.72257 6.33963
upperback 0.126641 -1.86667 0.86695
thorax -3.04172 -1.00852 -2.50773
lowerneck -2.96658 0.184112 1.91543
upperneck 3.67726 0.079283 2.12827
head 1.63955 0.114796 0.342076
rclavicle -1.27322e-013 1.03368e-014
rhumerus -32.8248 -13.9257 -83.7717
rradius 18.3028
rwrist 16.3343
rhand -17.8241 -5.80652
rfingers 7.12502
rthumb 8.44013 -35.6179
lclavicle -1.27322e-013 1.03368e-014
lhumerus -26.2384 32.0941 75.5857
lradius 4.13921
lwrist -8.67743
lhand -28.127 16.3532
lfingers 7.12502
lthumb -1.50855 46.3276
rfemur -3.80288 9.30572 32.0539
rtibia 21.1698
rfoot -23.1842 -12.5175
rtoes -0.860791
lfemur -15.4289 7.30064 -14.2523
ltibia 49.6529
lfoot -10.7504 0.0570985
ltoes -8.44101
279
root -34.6619 17.077 -16.7043 1.16819 46.7012 -10.474
lowerback 5.43086 -1.66871 6.51724
upperback 0.114526 -1.77487 0.886945
thorax -3.1022 -0.966935 -2.59146
lowerneck -2.91674 0.083584 1.84597
upperneck 3.6426 -0.0520297 2.1944
head 1.61997 0.0489707 0.371143
rclavicle -6.95746e-014 -2.18663e-014
rhumerus -32.6764 -13.823 -83.8325
rradius 18.33
rwrist 16.3304
rhand -17.8715 -5.78621
rfingers 7.12502
rthumb 8.39431 -35.5994
lclavicle -6.95746e-014 -2.18663e-014
lhumerus -26.3176 31.6881 75.657
lradius 4.08684
lwrist -8.13367
lhand -28.1748 16.488
lfingers 7.12502
lthumb -1.55473 46.4621
rfemur -2.60801 8.94403 32.3076
rtibia 19.9805
rfoot -22.8533 -11.9361
rtoes 0.82009
lfemur -16.8918 7.12669 -14.1583
ltibia 51.0812
lfoot -10.6782 -0.265282
ltoes -8.02819
280
root -34.5608 17.0756 -16.5814 0.986173 46.8884 -10.6452
lowerback 5.5203 -1.61314 6.67226
upperback 0.103158 -1.68226 0.900706
thorax -3.15993 -0.924731 -2.66942
lowerneck -2.86756 -0.0115448 1.78345
upperneck 3.6095 -0.176412 2.25759
head 1.60121 -0.0133524 0.398357
rclavicle 4.32357e-014 1.98785e-015
rhumerus -32.5221 -13.7141 -83.8993
rradius 18.3649
rwrist 16.3063
rhand -17.9225 -5.76734
rfingers 7.12502
rthumb 8.34517 -35.5825
lclavicle 4.32357e-014 1.98785e-015
lhumerus -26.4079 31.2937 75.7136
lradius 4.02859
lwrist -7.59596
lhand -28.2144 16.6297
lfingers 7.12502
lthumb -1.59298 46.6035
rfemur -1.49979 8.52575 32.5321
rtibia 18.9485
rfoot -22.4373 -11.3751
rtoes 2.31705
lfemur -18.2648 6.95207 -14.0948
ltibia 52.2793
lfoot -10.6584 -0.596124
ltoes -7.64771
281
root -34.4578 17.0764 -16.4568 0.825037 47.0542 -10.7886
lowerback 5.61082 -1.55672 6.80045
upperback 0.0922348 -1.59014 0.908435
thorax -3.21682 -0.882529 -2.73884
lowerneck -2.81551 -0.101735 1.72756
upperneck 3.57495 -0.294292 2.31805
head 1.58164 -0.0724551 0.423804
rclavicle -1.13705e-013 4.37326e-015
rhumerus -32.3641 -13.5999 -83.9698
rradius 18.4063
rwrist 16.2664
rhand -17.9837 -5.75625
rfingers 7.12502
rthumb 8.28607 -35.5737
lclavicle -1.13705e-013 4.37326e-015
lhumerus -26.507 30.9151 75.7551
lradius 3.9604
lwrist -7.07145
lhand -28.2422 16.7839
lfingers 7.12502
lthumb -1.61986 46.7574
rfemur -0.492718 8.0602 32.7226
rtibia 18.0972
rfoot -21.9427 -10.823
rtoes 3.67936
lfemur -19.5327 6.77892 -14.0627
ltibia 53.2328
lfoot -10.6816 -0.922454
ltoes -7.33599
